<svg xmlns="http://www.w3.org/2000/svg" width="122.165" height="100.779" viewBox="0 0 122.165 100.779"><defs><style>.a{opacity:0.04;}.b{fill:#333;}</style></defs><g class="a" transform="translate(-130.332 -7.705)"><g transform="translate(130.332 7.705)"><path class="b" d="M139.569,12.323A4.619,4.619,0,1,1,134.951,7.7,4.619,4.619,0,0,1,139.569,12.323Z" transform="translate(-130.332 -7.705)"/><path class="b" d="M153.65,12.323A4.619,4.619,0,1,1,149.032,7.7,4.619,4.619,0,0,1,153.65,12.323Z" transform="translate(-121.828 -7.705)"/><path class="b" d="M167.731,12.323A4.619,4.619,0,1,1,163.113,7.7,4.619,4.619,0,0,1,167.731,12.323Z" transform="translate(-113.323 -7.705)"/><path class="b" d="M181.812,12.323A4.618,4.618,0,1,1,177.194,7.7,4.619,4.619,0,0,1,181.812,12.323Z" transform="translate(-104.819 -7.705)"/><path class="b" d="M195.893,12.323A4.618,4.618,0,1,1,191.275,7.7,4.619,4.619,0,0,1,195.893,12.323Z" transform="translate(-96.314 -7.705)"/><path class="b" d="M209.975,12.323A4.619,4.619,0,1,1,205.356,7.7,4.621,4.621,0,0,1,209.975,12.323Z" transform="translate(-87.81 -7.705)"/><g transform="translate(0 22.885)"><path class="b" d="M139.569,26.592a4.619,4.619,0,1,1-4.618-4.619A4.618,4.618,0,0,1,139.569,26.592Z" transform="translate(-130.332 -21.973)"/><path class="b" d="M153.65,26.592a4.619,4.619,0,1,1-4.618-4.619A4.618,4.618,0,0,1,153.65,26.592Z" transform="translate(-121.828 -21.973)"/><path class="b" d="M167.731,26.592a4.619,4.619,0,1,1-4.618-4.619A4.618,4.618,0,0,1,167.731,26.592Z" transform="translate(-113.323 -21.973)"/><path class="b" d="M181.812,26.592a4.618,4.618,0,1,1-4.618-4.619A4.618,4.618,0,0,1,181.812,26.592Z" transform="translate(-104.819 -21.973)"/><path class="b" d="M195.893,26.592a4.618,4.618,0,1,1-4.618-4.619A4.618,4.618,0,0,1,195.893,26.592Z" transform="translate(-96.314 -21.973)"/><path class="b" d="M209.975,26.592a4.619,4.619,0,1,1-4.619-4.619A4.619,4.619,0,0,1,209.975,26.592Z" transform="translate(-87.81 -21.973)"/></g><g transform="translate(0 45.772)"><path class="b" d="M139.569,40.86a4.619,4.619,0,1,1-4.618-4.618A4.618,4.618,0,0,1,139.569,40.86Z" transform="translate(-130.332 -36.242)"/><path class="b" d="M153.65,40.86a4.619,4.619,0,1,1-4.618-4.618A4.618,4.618,0,0,1,153.65,40.86Z" transform="translate(-121.828 -36.242)"/><path class="b" d="M167.731,40.86a4.619,4.619,0,1,1-4.618-4.618A4.618,4.618,0,0,1,167.731,40.86Z" transform="translate(-113.323 -36.242)"/><path class="b" d="M181.812,40.86a4.618,4.618,0,1,1-4.618-4.618A4.618,4.618,0,0,1,181.812,40.86Z" transform="translate(-104.819 -36.242)"/><path class="b" d="M195.893,40.86a4.618,4.618,0,1,1-4.618-4.618A4.618,4.618,0,0,1,195.893,40.86Z" transform="translate(-96.314 -36.242)"/><path class="b" d="M209.975,40.86a4.619,4.619,0,1,1-4.619-4.618A4.619,4.619,0,0,1,209.975,40.86Z" transform="translate(-87.81 -36.242)"/></g><g transform="translate(0 68.657)"><path class="b" d="M139.569,55.128a4.619,4.619,0,1,1-4.618-4.618A4.619,4.619,0,0,1,139.569,55.128Z" transform="translate(-130.332 -50.51)"/><path class="b" d="M153.65,55.128a4.619,4.619,0,1,1-4.618-4.618A4.619,4.619,0,0,1,153.65,55.128Z" transform="translate(-121.828 -50.51)"/><path class="b" d="M167.731,55.128a4.619,4.619,0,1,1-4.618-4.618A4.619,4.619,0,0,1,167.731,55.128Z" transform="translate(-113.323 -50.51)"/><path class="b" d="M181.812,55.128a4.618,4.618,0,1,1-4.618-4.618A4.619,4.619,0,0,1,181.812,55.128Z" transform="translate(-104.819 -50.51)"/><path class="b" d="M195.893,55.128a4.618,4.618,0,1,1-4.618-4.618A4.619,4.619,0,0,1,195.893,55.128Z" transform="translate(-96.314 -50.51)"/><path class="b" d="M209.975,55.128a4.619,4.619,0,1,1-4.619-4.618A4.621,4.621,0,0,1,209.975,55.128Z" transform="translate(-87.81 -50.51)"/></g><g transform="translate(0 91.542)"><path class="b" d="M139.569,69.4a4.619,4.619,0,1,1-4.618-4.619A4.618,4.618,0,0,1,139.569,69.4Z" transform="translate(-130.332 -64.778)"/><path class="b" d="M153.65,69.4a4.619,4.619,0,1,1-4.618-4.619A4.618,4.618,0,0,1,153.65,69.4Z" transform="translate(-121.828 -64.778)"/><path class="b" d="M167.731,69.4a4.619,4.619,0,1,1-4.618-4.619A4.618,4.618,0,0,1,167.731,69.4Z" transform="translate(-113.323 -64.778)"/><path class="b" d="M181.812,69.4a4.618,4.618,0,1,1-4.618-4.619A4.618,4.618,0,0,1,181.812,69.4Z" transform="translate(-104.819 -64.778)"/><path class="b" d="M195.893,69.4a4.618,4.618,0,1,1-4.618-4.619A4.618,4.618,0,0,1,195.893,69.4Z" transform="translate(-96.314 -64.778)"/><path class="b" d="M209.975,69.4a4.619,4.619,0,1,1-4.619-4.619A4.619,4.619,0,0,1,209.975,69.4Z" transform="translate(-87.81 -64.778)"/></g></g></g></svg>