<svg xmlns="http://www.w3.org/2000/svg" xmlns:xlink="http://www.w3.org/1999/xlink" width="138.754" height="138.755" viewBox="0 0 138.754 138.755"><defs><style>.a{opacity:0.28;}.b{fill:url(#a);}</style><linearGradient id="a" x1="0.5" x2="0.5" y2="1" gradientUnits="objectBoundingBox"><stop offset="0" stop-color="#fe2983"/><stop offset="0.558" stop-color="#ff6f61"/><stop offset="1" stop-color="#fc9e21"/></linearGradient></defs><g class="a"><path class="b" d="M503.169,282.39l-91.615,91.615c1.552.534,3.119,1.016,4.7,1.432L504.6,287.093C504.186,285.509,503.7,283.942,503.169,282.39Z" transform="translate(-368.05 -238.885)"/><path class="b" d="M500.279,274.558l-96.557,96.557q2.057,1.06,4.174,1.961l94.344-94.344Q501.336,276.616,500.279,274.558Z" transform="translate(-368.823 -239.658)"/><path class="b" d="M504.831,291.248l-84.419,84.419q2.673.485,5.384.751l79.787-79.787Q505.314,293.922,504.831,291.248Z" transform="translate(-367.176 -238.011)"/><path class="b" d="M496.329,267.612l-99.553,99.553c1.212.857,2.451,1.66,3.709,2.425l98.269-98.269C497.989,270.063,497.186,268.824,496.329,267.612Z" transform="translate(-369.508 -240.344)"/><path class="b" d="M430.586,375.754c2.1.031,4.213-.027,6.322-.188l67.822-67.822c.16-2.11.219-4.218.188-6.322Z" transform="translate(-366.172 -237.007)"/><path class="b" d="M393.076,263.912A74.8,74.8,0,0,0,378.145,285.2l36.215-36.215A74.8,74.8,0,0,0,393.076,263.912Z" transform="translate(-371.347 -242.182)"/><path class="b" d="M439.975,242.989l-67.822,67.822c-.16,2.109-.218,4.219-.187,6.322L446.3,242.8C444.194,242.771,442.084,242.828,439.975,242.989Z" transform="translate(-371.958 -242.793)"/><path class="b" d="M450.805,371.537l49.9-49.9a72.089,72.089,0,0,0,1.93-8.064l-59.891,59.891A72.078,72.078,0,0,0,450.805,371.537Z" transform="translate(-364.972 -235.807)"/><path class="b" d="M491.419,261.466,390.631,362.255c1.065,1,2.148,1.96,3.264,2.87L494.289,264.731C493.379,263.615,492.416,262.532,491.419,261.466Z" transform="translate(-370.115 -240.95)"/><path class="b" d="M424.779,245.72l-49.895,49.895a71.9,71.9,0,0,0-1.93,8.064l59.89-59.89A71.9,71.9,0,0,0,424.779,245.72Z" transform="translate(-371.859 -242.695)"/><path class="b" d="M452.061,243.109,372.273,322.9q.269,2.709.751,5.384l84.419-84.419Q454.77,243.376,452.061,243.109Z" transform="translate(-371.927 -242.762)"/><path class="b" d="M480.383,351.218a74.809,74.809,0,0,0,14.93-21.284L459.1,366.149A74.819,74.819,0,0,0,480.383,351.218Z" transform="translate(-363.358 -234.193)"/><path class="b" d="M478.88,251.447l-98.269,98.269c.765,1.258,1.568,2.5,2.425,3.709l99.555-99.553C481.377,253.015,480.138,252.212,478.88,251.447Z" transform="translate(-371.104 -241.939)"/><path class="b" d="M462.305,244.8l-88.342,88.342c.415,1.585.9,3.152,1.431,4.7l91.615-91.615C465.457,245.7,463.891,245.214,462.305,244.8Z" transform="translate(-371.76 -242.595)"/><path class="b" d="M485.622,256.063l-100.4,100.394c.911,1.116,1.874,2.2,2.87,3.265L488.886,258.933C487.822,257.937,486.737,256.974,485.622,256.063Z" transform="translate(-370.648 -241.483)"/><path class="b" d="M471.16,247.65,376.814,342q.9,2.116,1.961,4.173l96.557-96.557Q473.277,248.551,471.16,247.65Z" transform="translate(-371.478 -242.314)"/></g></svg>